<?xml version="1.0" encoding="utf-8"?>
<!-- Generator: Adobe Illustrator 25.4.1, SVG Export Plug-In . SVG Version: 6.00 Build 0)  -->
<svg version="1.1" id="Capa_1" xmlns="http://www.w3.org/2000/svg" xmlns:xlink="http://www.w3.org/1999/xlink" x="0px" y="0px"
	 viewBox="0 0 25 8.46" style="enable-background:new 0 0 25 8.46;" xml:space="preserve">
<style type="text/css">
	.st0{fill:#FFFFFF;}
</style>
<g>
	<g>
		<g>
			<path class="st0" d="M13.43,2.38c0.31,0,0.61,0,0.92,0c0,0.49,0,0.97,0,1.48c0.11,0,0.21,0,0.31,0c0.03,0,0.06-0.03,0.08-0.06
				c0.36-0.45,0.72-0.9,1.08-1.35c0.03-0.03,0.08-0.07,0.11-0.07c0.35-0.01,0.69,0,1.08,0c-0.14,0.17-0.26,0.32-0.38,0.47
				c-0.33,0.4-0.67,0.8-1.01,1.2c-0.05,0.06-0.08,0.11-0.02,0.19c0.37,0.48,0.74,0.97,1.11,1.46c0.01,0.01,0.03,0.02,0.06,0.05
				c0.06-0.14,0.11-0.27,0.16-0.4C17.29,4.42,17.65,3.5,18,2.57c0.08-0.22,0.04-0.19,0.29-0.19c0.33,0,0.67,0,1,0
				c0.08,0,0.12,0.02,0.15,0.1c0.17,0.44,0.33,0.88,0.5,1.32c0.24,0.63,0.49,1.25,0.73,1.88c0.05,0.13,0.11,0.26,0.17,0.41
				c-0.2,0-0.37,0-0.55,0c-0.14,0-0.32,0.04-0.42-0.03c-0.1-0.07-0.11-0.25-0.16-0.38c0-0.01-0.01-0.02-0.01-0.02
				c-0.05-0.13-0.06-0.31-0.16-0.38c-0.09-0.07-0.26-0.02-0.4-0.02c-0.37,0-0.74,0-1.11,0c-0.1,0-0.15,0.02-0.18,0.12
				c-0.07,0.21-0.15,0.41-0.22,0.62c-0.02,0.07-0.06,0.09-0.13,0.09c-0.51,0-1.03,0-1.54,0c-0.05,0-0.11-0.03-0.14-0.07
				c-0.3-0.39-0.59-0.77-0.88-1.17c-0.03-0.04-0.08-0.1-0.17-0.15c-0.15-0.07-0.31-0.04-0.42-0.01c0,0.46,0,0.92,0,1.39
				c-0.31,0-0.61,0-0.92,0C13.43,4.84,13.43,3.62,13.43,2.38z M19.31,4.51c-0.16-0.45-0.31-0.88-0.46-1.31
				c-0.01-0.03-0.09-0.06-0.13-0.06c-0.04,0-0.08,0.05-0.1,0.09c-0.14,0.38-0.27,0.76-0.41,1.14c-0.02,0.04-0.03,0.09-0.05,0.14
				C18.56,4.51,18.92,4.51,19.31,4.51z"/>
		</g>
		<g>
			<path class="st0" d="M9.66,2.38c0.29,0,0.58,0,0.86,0c0.05,0,0.1,0.05,0.13,0.09c0.47,0.57,0.94,1.14,1.41,1.71
				c0,0.01,0.01,0.01,0.03,0.01c0-0.6,0-1.2,0-1.81c0.29,0,0.57,0,0.87,0c0,1.22,0,2.44,0,3.68c-0.29,0-0.58,0-0.89,0
				c0-0.13-0.01-0.25,0-0.37c0.01-0.11-0.03-0.2-0.1-0.29c-0.47-0.56-0.94-1.12-1.4-1.68c-0.01-0.01-0.02-0.02-0.05-0.04
				c0,0.8,0,1.59,0,2.39c-0.29,0-0.58,0-0.87,0C9.66,4.84,9.66,3.62,9.66,2.38z"/>
		</g>
		<g>
			<path class="st0" d="M5.7,2.39c0,0.22,0,0.42,0,0.63c0,0.05-0.04,0.1-0.07,0.13c-0.68,0.7-1.37,1.41-2.05,2.11c0,0,0,0.01,0,0.02
				c0.7,0,1.41,0,2.13,0c0,0.27,0,0.52,0,0.79c-1.15,0-2.29,0-3.46,0c0-0.22-0.01-0.43,0-0.65c0-0.05,0.05-0.11,0.09-0.15
				c0.67-0.69,1.34-1.38,2-2.06C4.34,3.2,4.35,3.19,4.36,3.16c-0.67,0-1.33,0-1.99,0c0-0.26,0-0.52,0-0.77
				C3.47,2.39,4.58,2.39,5.7,2.39z"/>
		</g>
		<g>
			<path class="st0" d="M7.12,5.34c0.7,0,1.4,0,2.1,0c0,0.25,0,0.48,0,0.73c-1.01,0-2.02,0-3.03,0c0-1.22,0-2.44,0-3.68
				c1,0,2.01,0,3.02,0c0,0.24,0,0.48,0,0.74c-0.7,0-1.39,0-2.09,0c0,0.24,0,0.46,0,0.7c0.61,0,1.22,0,1.83,0c0,0.25,0,0.48,0,0.73
				c-0.61,0-1.22,0-1.84,0C7.12,4.82,7.12,5.06,7.12,5.34z"/>
		</g>
		<g>
			<path class="st0" d="M21.06,2.39c0.31,0,0.6,0,0.91,0c0,1.23,0,2.44,0,3.68c-0.3,0-0.6,0-0.91,0
				C21.06,4.85,21.06,3.62,21.06,2.39z"/>
		</g>
		<g>
			<path class="st0" d="M22.52,5.58c0.14,0,0.26,0.13,0.25,0.27c-0.01,0.13-0.12,0.24-0.25,0.24c-0.13,0-0.24-0.12-0.24-0.27
				C22.28,5.68,22.39,5.58,22.52,5.58z"/>
		</g>
	</g>
	<g>
		<path class="st0" d="M25,8.04H0V0.42h25V8.04z M0.79,7.25h23.42V1.22H0.79V7.25z"/>
	</g>
</g>
</svg>
