<?xml version="1.0" encoding="utf-8"?>
<!-- Generator: Adobe Illustrator 25.4.1, SVG Export Plug-In . SVG Version: 6.00 Build 0)  -->
<svg version="1.1" id="Capa_1" xmlns="http://www.w3.org/2000/svg" xmlns:xlink="http://www.w3.org/1999/xlink" x="0px" y="0px"
	 viewBox="0 0 35.62 11.34" style="enable-background:new 0 0 35.62 11.34;" xml:space="preserve">
<style type="text/css">
	.st0{fill:#FFFFFF;}
</style>
<g>
	<g>
		<g>
			<path class="st0" d="M19.11,3.08c0.43,0,0.85,0,1.28,0c0,0.68,0,1.36,0,2.07c0.16,0,0.3,0.01,0.44,0c0.04,0,0.08-0.05,0.11-0.08
				c0.51-0.63,1.01-1.26,1.51-1.89c0.04-0.05,0.11-0.1,0.16-0.1c0.49-0.01,0.97,0,1.51,0c-0.2,0.24-0.37,0.45-0.54,0.65
				c-0.47,0.56-0.94,1.13-1.41,1.69c-0.07,0.09-0.11,0.16-0.03,0.27c0.52,0.68,1.04,1.36,1.56,2.04c0.01,0.02,0.04,0.03,0.08,0.07
				c0.08-0.2,0.16-0.38,0.23-0.56c0.5-1.3,1.01-2.59,1.5-3.89c0.11-0.3,0.06-0.27,0.4-0.27c0.47,0,0.94,0,1.4,0
				c0.11,0,0.17,0.03,0.21,0.14c0.23,0.62,0.47,1.23,0.71,1.84c0.34,0.88,0.68,1.75,1.03,2.63c0.07,0.18,0.15,0.36,0.24,0.57
				c-0.27,0-0.52,0-0.77,0c-0.2,0-0.45,0.05-0.59-0.04c-0.13-0.09-0.15-0.35-0.22-0.53c0-0.01-0.01-0.02-0.01-0.03
				c-0.07-0.18-0.09-0.43-0.22-0.53c-0.13-0.09-0.37-0.03-0.56-0.03c-0.52,0-1.04,0-1.55,0c-0.14,0-0.21,0.03-0.25,0.17
				c-0.09,0.29-0.21,0.58-0.31,0.87c-0.03,0.1-0.08,0.13-0.19,0.13c-0.72,0-1.44,0-2.16-0.01c-0.07,0-0.15-0.05-0.2-0.1
				c-0.42-0.54-0.83-1.08-1.23-1.64c-0.04-0.05-0.11-0.14-0.24-0.21c-0.21-0.1-0.44-0.06-0.58-0.01c0,0.65,0,1.29,0,1.94
				c-0.44,0-0.86,0-1.29,0C19.11,6.52,19.11,4.81,19.11,3.08z M27.35,6.06c-0.22-0.63-0.43-1.23-0.65-1.83
				c-0.02-0.05-0.12-0.09-0.19-0.09c-0.05,0-0.12,0.07-0.14,0.12c-0.19,0.53-0.38,1.07-0.57,1.6c-0.02,0.06-0.04,0.12-0.06,0.2
				C26.29,6.06,26.8,6.06,27.35,6.06z"/>
		</g>
		<g>
			<path class="st0" d="M13.83,3.08c0.41,0,0.81-0.01,1.21,0.01c0.06,0,0.14,0.07,0.19,0.13c0.66,0.8,1.32,1.59,1.98,2.39
				c0.01,0.01,0.02,0.01,0.04,0.02c0-0.84,0-1.68,0-2.53c0.4,0,0.8,0,1.21,0c0,1.71,0,3.42,0,5.15c-0.41,0-0.82,0-1.25,0
				c0-0.18-0.01-0.35,0-0.52c0.01-0.16-0.04-0.29-0.14-0.4c-0.66-0.78-1.31-1.57-1.97-2.35c-0.01-0.02-0.03-0.03-0.06-0.06
				c0,1.12,0,2.22,0,3.34c-0.4,0-0.81,0-1.22,0C13.83,6.52,13.83,4.81,13.83,3.08z"/>
		</g>
		<g>
			<path class="st0" d="M8.29,3.09c0,0.31,0.01,0.59,0,0.88c0,0.06-0.05,0.14-0.1,0.18C7.22,5.14,6.26,6.12,5.3,7.1
				c0,0,0,0.01,0,0.03c0.99,0,1.97,0,2.98,0c0,0.37,0,0.73,0,1.11c-1.61,0-3.21,0-4.84,0c0-0.31-0.01-0.61,0.01-0.91
				c0-0.07,0.07-0.15,0.13-0.21C4.51,6.16,5.44,5.2,6.38,4.23C6.39,4.22,6.4,4.2,6.42,4.17c-0.94,0-1.86,0-2.79,0
				c0-0.37,0-0.72,0-1.08C5.17,3.09,6.71,3.09,8.29,3.09z"/>
		</g>
		<g>
			<path class="st0" d="M10.28,7.22c0.98,0,1.96,0,2.94,0c0,0.35,0,0.68,0,1.02c-1.41,0-2.82,0-4.25,0c0-1.71,0-3.42,0-5.15
				c1.41,0,2.81,0,4.23,0c0,0.34,0,0.68,0,1.03c-0.98,0-1.94,0-2.92,0c0,0.33,0,0.64,0,0.98c0.85,0,1.7,0,2.57,0
				c0,0.35,0,0.67,0,1.02c-0.85,0-1.71,0-2.57,0C10.28,6.49,10.28,6.84,10.28,7.22z"/>
		</g>
		<g>
			<path class="st0" d="M29.79,3.09c0.43,0,0.84,0,1.28,0c0,1.72,0,3.42,0,5.15c-0.42,0-0.84,0-1.28,0
				C29.79,6.53,29.79,4.82,29.79,3.09z"/>
		</g>
		<g>
			<path class="st0" d="M31.83,7.56c0.2,0,0.36,0.18,0.35,0.38c-0.01,0.18-0.17,0.34-0.36,0.33c-0.19-0.01-0.34-0.17-0.33-0.37
				C31.5,7.7,31.65,7.55,31.83,7.56z"/>
		</g>
	</g>
	<g>
		<path class="st0" d="M35.31,11h-35V0.34h35V11z M1.42,9.89H34.2V1.45H1.42V9.89z"/>
	</g>
</g>
</svg>
